<?xml version="1.0" encoding="utf-8"?>
<svg xmlns="http://www.w3.org/2000/svg" viewBox="0 0 48 48">
  <path d="M10.5 6C7.467 6 5 8.467 5 11.5L5 36.5C5 39.533 7.467 42 10.5 42L37.5 42C40.533 42 43 39.533 43 36.5L43 11.5C43 8.467 40.533 6 37.5 6L10.5 6 z M 9 15L39 15L39 36.5C39 37.327 38.327 38 37.5 38L10.5 38C9.673 38 9 37.327 9 36.5L9 15 z M 25.498047 17.978516 A 1.50015 1.50015 0 0 0 24.033203 19.185547L21.033203 33.185547 A 1.50015 1.50015 0 1 0 23.966797 33.814453L26.966797 19.814453 A 1.50015 1.50015 0 0 0 25.498047 17.978516 z M 30.484375 20.984375 A 1.50015 1.50015 0 0 0 29.439453 23.560547L32.378906 26.5L29.439453 29.439453 A 1.50015 1.50015 0 1 0 31.560547 31.560547L35.560547 27.560547 A 1.50015 1.50015 0 0 0 35.560547 25.439453L31.560547 21.439453 A 1.50015 1.50015 0 0 0 30.484375 20.984375 z M 17.470703 20.986328 A 1.50015 1.50015 0 0 0 16.439453 21.439453L12.439453 25.439453 A 1.50015 1.50015 0 0 0 12.439453 27.560547L16.439453 31.560547 A 1.50015 1.50015 0 1 0 18.560547 29.439453L15.621094 26.5L18.560547 23.560547 A 1.50015 1.50015 0 0 0 17.470703 20.986328 z" fill="#16A085" />
</svg>